<svg viewBox="0 0 158 40" fill="none" xmlns="http://www.w3.org/2000/svg">
  <path d="M15.6621 12.5436V30.3859H9.57128V12.5436H0V7.58091H25.2498V12.5436H15.6621Z" fill="url(#paint0_linear_375_7019)"/>
  <path d="M29.2884 30.3859V7.58091H35.3793V30.3859H29.2884Z" fill="url(#paint1_linear_375_7019)"/>
  <path d="M63.8797 30.3859C63.7702 29.1466 63.4747 28.0622 62.9931 27.1328C62.5116 26.1923 61.9041 25.3845 61.1708 24.7095C60.4485 24.0346 59.6276 23.4758 58.7082 23.0332C57.7998 22.5906 56.864 22.242 55.9009 21.9876C54.9377 21.722 53.9746 21.5394 53.0114 21.4398C52.0592 21.3292 51.1727 21.2739 50.3518 21.2739H48.5459V30.3859H42.4551V7.58091H48.5459V16.3776H49.7936C50.6364 16.3776 51.5175 16.3112 52.4368 16.1784C53.3562 16.0456 54.2646 15.8354 55.1621 15.5477C56.0705 15.26 56.9406 14.8894 57.7724 14.4357C58.6043 13.982 59.3485 13.4288 60.0052 12.7759C60.6619 12.1231 61.2091 11.3707 61.6469 10.5187C62.0847 9.6556 62.3583 8.67635 62.4678 7.58091H68.6735C68.5641 8.787 68.3233 9.8769 67.9512 10.8506C67.59 11.8243 67.1358 12.6985 66.5885 13.473C66.0522 14.2365 65.4503 14.9059 64.7826 15.4813C64.115 16.0567 63.4309 16.5546 62.7305 16.9751C62.03 17.3845 61.3295 17.7275 60.6291 18.0042C59.9395 18.2697 59.2938 18.4744 58.6918 18.6183C59.458 18.74 60.2515 18.9336 61.0723 19.1992C61.9041 19.4537 62.725 19.7967 63.5349 20.2282C64.3448 20.6487 65.1164 21.1687 65.8498 21.7884C66.594 22.408 67.2616 23.1328 67.8527 23.9627C68.4437 24.7925 68.9362 25.7386 69.3302 26.8008C69.7242 27.8631 69.976 29.0581 70.0854 30.3859H63.8797Z" fill="url(#paint2_linear_375_7019)"/>
  <path d="M96.1068 14.0041C95.68 13.7939 95.1163 13.556 94.4158 13.2905C93.7154 13.0249 92.9219 12.7759 92.0353 12.5436C91.1488 12.3001 90.1857 12.101 89.1459 11.9461C88.1061 11.7801 87.039 11.6971 85.9445 11.6971C85.0689 11.6971 84.3192 11.7248 83.6954 11.7801C83.0824 11.8354 82.5626 11.9073 82.1357 11.9959C81.7198 12.0844 81.386 12.1895 81.1343 12.3112C80.8935 12.4219 80.7074 12.538 80.5761 12.6598C80.4447 12.7815 80.3572 12.9032 80.3134 13.0249C80.2806 13.1466 80.2641 13.2573 80.2641 13.3568C80.2641 13.6888 80.4283 13.982 80.7567 14.2365C81.085 14.4799 81.5337 14.7012 82.1029 14.9004C82.672 15.0885 83.3342 15.2711 84.0894 15.4481C84.8446 15.6141 85.6435 15.7911 86.4863 15.9793C87.34 16.1563 88.2156 16.3555 89.1131 16.5768C90.0215 16.787 90.8971 17.036 91.7398 17.3237C92.5935 17.6113 93.398 17.9488 94.1532 18.3361C94.9084 18.7123 95.5705 19.1549 96.1397 19.6639C96.7088 20.1729 97.1575 20.7593 97.4859 21.4232C97.8142 22.0871 97.9784 22.8451 97.9784 23.6971C97.9784 24.7925 97.7869 25.7331 97.4038 26.5187C97.0207 27.3043 96.5063 27.9682 95.8606 28.5104C95.2258 29.0526 94.487 29.4896 93.6442 29.8216C92.8015 30.1425 91.9149 30.3914 90.9846 30.5685C90.0653 30.7455 89.1295 30.8617 88.1773 30.917C87.236 30.9723 86.3385 31 85.4848 31C83.2521 31 81.1835 30.8119 79.2791 30.4357C77.3856 30.0705 75.7111 29.6113 74.2554 29.0581V23.6141C75.7549 24.455 77.4622 25.1134 79.3776 25.5892C81.3039 26.065 83.3615 26.3029 85.5505 26.3029C86.842 26.3029 87.8927 26.2365 88.7026 26.1037C89.5235 25.9599 90.1638 25.7829 90.6234 25.5726C91.0831 25.3513 91.3951 25.1134 91.5592 24.8589C91.7234 24.6044 91.8055 24.361 91.8055 24.1286C91.8055 23.7635 91.6413 23.4481 91.313 23.1826C90.9846 22.9059 90.5359 22.6681 89.9668 22.4689C89.3976 22.2586 88.7355 22.0705 87.9803 21.9046C87.2251 21.7275 86.4206 21.556 85.5669 21.39C84.7242 21.213 83.854 21.0249 82.9566 20.8257C82.0591 20.6266 81.1835 20.3942 80.3298 20.1286C79.4871 19.852 78.6881 19.5367 77.9329 19.1826C77.1777 18.8174 76.5155 18.3914 75.9464 17.9046C75.3773 17.4066 74.9285 16.8368 74.6002 16.195C74.2718 15.5422 74.1077 14.7898 74.1077 13.9378C74.1077 12.9308 74.2828 12.0622 74.633 11.332C74.9832 10.6017 75.4539 9.98202 76.0449 9.47303C76.6469 8.95297 77.3364 8.5325 78.1135 8.21162C78.9015 7.89073 79.7278 7.64177 80.5925 7.46473C81.4571 7.28769 82.3327 7.16598 83.2192 7.09959C84.1058 7.0332 84.9485 7 85.7475 7C86.6231 7 87.5206 7.04426 88.4399 7.13278C89.3703 7.2213 90.2842 7.34855 91.1816 7.51452C92.0791 7.66943 92.9438 7.85201 93.7756 8.06224C94.6183 8.27248 95.3954 8.49378 96.1068 8.72614V14.0041Z" fill="url(#paint3_linear_375_7019)"/>
  <path d="M122.883 30.3859V28.1452C122.106 28.5768 121.269 28.9585 120.372 29.2905C119.485 29.6224 118.56 29.9046 117.597 30.1369C116.634 30.3693 115.638 30.5408 114.609 30.6515C113.591 30.7732 112.562 30.834 111.523 30.834C110.308 30.834 109.131 30.7178 107.993 30.4855C106.866 30.2531 105.864 29.8769 104.989 29.3568C104.113 28.8368 103.407 28.1563 102.871 27.3154C102.345 26.4744 102.083 25.4454 102.083 24.2282C102.083 22.6902 102.499 21.4122 103.33 20.3942C104.162 19.3651 105.432 18.5242 107.139 17.8714C108.847 17.2185 111.003 16.7151 113.608 16.361C116.223 16.0069 119.315 15.7303 122.883 15.5311V15.0498C122.883 14.6736 122.785 14.3029 122.588 13.9378C122.391 13.5615 122.03 13.2351 121.504 12.9585C120.99 12.6708 120.279 12.4385 119.37 12.2614C118.473 12.0844 117.323 11.9959 115.922 11.9959C114.817 11.9959 113.723 12.0567 112.639 12.1784C111.566 12.2891 110.527 12.444 109.52 12.6432C108.524 12.8423 107.577 13.0747 106.68 13.3402C105.782 13.6058 104.967 13.8824 104.233 14.1701V8.69295C105 8.49378 105.859 8.30014 106.811 8.11203C107.763 7.92393 108.754 7.76349 109.782 7.63071C110.811 7.48686 111.851 7.37621 112.902 7.29876C113.952 7.21024 114.959 7.16598 115.922 7.16598C117.816 7.16598 119.562 7.32642 121.16 7.6473C122.758 7.95712 124.131 8.44398 125.28 9.10788C126.441 9.77178 127.343 10.6127 127.989 11.6307C128.646 12.6487 128.974 13.8603 128.974 15.2656V30.3859H122.883ZM122.883 19.9793C120.541 20.0678 118.549 20.195 116.908 20.361C115.277 20.527 113.92 20.7206 112.836 20.9419C111.753 21.1632 110.899 21.4011 110.275 21.6556C109.662 21.9101 109.202 22.1701 108.896 22.4357C108.589 22.7012 108.398 22.9668 108.321 23.2324C108.256 23.4979 108.223 23.7414 108.223 23.9627C108.223 24.2282 108.294 24.4882 108.436 24.7427C108.578 24.9862 108.825 25.2019 109.175 25.39C109.536 25.5781 110.012 25.7275 110.603 25.8382C111.194 25.9488 111.939 26.0042 112.836 26.0042C113.832 26.0042 114.806 25.9267 115.758 25.7718C116.711 25.6169 117.613 25.4066 118.467 25.1411C119.321 24.8645 120.12 24.5436 120.864 24.1784C121.619 23.8022 122.292 23.4039 122.883 22.9834V19.9793Z" fill="url(#paint4_linear_375_7019)"/>
  <path d="M148.412 12.5436V30.3859H142.322V12.5436H132.75V7.58091H158V12.5436H148.412Z" fill="url(#paint5_linear_375_7019)"/>
  <defs>
    <linearGradient id="paint0_linear_375_7019" x1="154.5" y1="-0.499986" x2="15.952" y2="21.0456" gradientUnits="userSpaceOnUse">
      <stop stop-color="#4E46B4"/>
      <stop offset="1" stop-color="#746CE1"/>
    </linearGradient>
    <linearGradient id="paint1_linear_375_7019" x1="154.5" y1="-0.499986" x2="15.952" y2="21.0456" gradientUnits="userSpaceOnUse">
      <stop stop-color="#4E46B4"/>
      <stop offset="1" stop-color="#746CE1"/>
    </linearGradient>
    <linearGradient id="paint2_linear_375_7019" x1="154.5" y1="-0.499986" x2="15.952" y2="21.0456" gradientUnits="userSpaceOnUse">
      <stop stop-color="#4E46B4"/>
      <stop offset="1" stop-color="#746CE1"/>
    </linearGradient>
    <linearGradient id="paint3_linear_375_7019" x1="154.5" y1="-0.499986" x2="15.952" y2="21.0456" gradientUnits="userSpaceOnUse">
      <stop stop-color="#4E46B4"/>
      <stop offset="1" stop-color="#746CE1"/>
    </linearGradient>
    <linearGradient id="paint4_linear_375_7019" x1="154.5" y1="-0.499986" x2="15.952" y2="21.0456" gradientUnits="userSpaceOnUse">
      <stop stop-color="#4E46B4"/>
      <stop offset="1" stop-color="#746CE1"/>
    </linearGradient>
    <linearGradient id="paint5_linear_375_7019" x1="154.5" y1="-0.499986" x2="15.952" y2="21.0456" gradientUnits="userSpaceOnUse">
      <stop stop-color="#4E46B4"/>
      <stop offset="1" stop-color="#746CE1"/>
    </linearGradient>
  </defs>
</svg>
